<!-- Generator: Adobe Illustrator 18.0.0, SVG Export Plug-In  -->
<svg xmlns="http://www.w3.org/2000/svg" viewBox="0 0 110.95 32.66">

<path d="M27.88 4.74A15.79 15.79 0 0 0 16.29 0 15.55 15.55 0 0 0 4.82 4.74 16 16 0 0 0 0 16.34a15.68 15.68 0 0 0 4.82 11.51 15.65 15.65 0 0 0 11.47 4.81A16.07 16.07 0 0 0 28 27.81a15.52 15.52 0 0 0 4.65-11.47 15.76 15.76 0 0 0-4.77-11.6zM11.1 22.31A5.53 5.53 0 0 1 7 20.72a6 6 0 0 1-1.56-4.38A5.9 5.9 0 0 1 7 12a5.41 5.41 0 0 1 4-1.61 5.36 5.36 0 0 1 5.09 2.79l-2.54 1.31a2.32 2.32 0 0 0-2.16-1.58c-1.7 0-2.54 1.15-2.54 3.43s.84 3.42 2.54 3.42a2.47 2.47 0 0 0 2.4-1.67l2.35 1.25a5.44 5.44 0 0 1-5.04 2.97zm11.11 0a5.52 5.52 0 0 1-4.14-1.59 6 6 0 0 1-1.56-4.38A6 6 0 0 1 18.09 12a5.37 5.37 0 0 1 4-1.61 5.33 5.33 0 0 1 5.08 2.79l-2.57 1.29a2.29 2.29 0 0 0-2.11-1.58c-1.73 0-2.6 1.15-2.6 3.43s.87 3.42 2.6 3.42a2.38 2.38 0 0 0 2.35-1.67l2.4 1.25a5.43 5.43 0 0 1-5.03 2.99zM55.4 3.37A11.21 11.21 0 0 0 47.16 0 11 11 0 0 0 39 3.37a11.35 11.35 0 0 0-3.43 8.23A11.18 11.18 0 0 0 39 19.78a11.14 11.14 0 0 0 8.16 3.42 11.45 11.45 0 0 0 8.3-3.45 11 11 0 0 0 3.31-8.15 11.2 11.2 0 0 0-3.37-8.23zm-8.23.74a1.63 1.63 0 1 1-1.62 1.63 1.62 1.62 0 0 1 1.62-1.63zm3.12 9.36H49v5.62h-3.6v-5.62h-1.35V8.73A.76.76 0 0 1 44.8 8h4.74a.75.75 0 0 1 .75.75zm-5.88 12.88a3.94 3.94 0 0 1 .8.08 1.63 1.63 0 0 1 .63.25 1.21 1.21 0 0 1 .4.47 1.61 1.61 0 0 1 .15.73 1.38 1.38 0 0 1-.22.78 1.48 1.48 0 0 1-.63.51 1.5 1.5 0 0 1 .86.57 1.92 1.92 0 0 1 .1 1.81 1.62 1.62 0 0 1-.49.55 2.13 2.13 0 0 1-.7.32 3.22 3.22 0 0 1-.81.11h-3v-6.18zm-.18 2.5a1 1 0 0 0 .6-.17.66.66 0 0 0 .24-.56.74.74 0 0 0-.08-.36.63.63 0 0 0-.21-.22 1 1 0 0 0-.3-.1 2 2 0 0 0-.35 0h-1.27v1.44zm.08 2.62a1.67 1.67 0 0 0 .39 0 1.13 1.13 0 0 0 .3-.17.67.67 0 0 0 .22-.25.87.87 0 0 0 .08-.39.79.79 0 0 0-.27-.68 1.11 1.11 0 0 0-.71-.2h-1.46v1.69zm2.61-5.12h1.52l1.45 2.44 1.44-2.44h1.52l-2.3 3.81v2.37h-1.36v-2.41zM95.09 31a1 1 0 0 0 .29.35 1.27 1.27 0 0 0 .44.2 2.24 2.24 0 0 0 .52.06h.39a1.27 1.27 0 0 0 .38-.11.83.83 0 0 0 .31-.24.61.61 0 0 0 .12-.39.56.56 0 0 0-.16-.4 1.25 1.25 0 0 0-.42-.26 3.76 3.76 0 0 0-.59-.18l-.66-.18a5.35 5.35 0 0 1-.68-.21 2.39 2.39 0 0 1-.59-.32 1.53 1.53 0 0 1-.41-.5 1.47 1.47 0 0 1-.16-.72 1.57 1.57 0 0 1 .2-.83 1.73 1.73 0 0 1 .53-.58 2.4 2.4 0 0 1 .74-.35 3 3 0 0 1 .83-.11 3.49 3.49 0 0 1 .93.11 2.27 2.27 0 0 1 .79.35 1.73 1.73 0 0 1 .55.62 1.83 1.83 0 0 1 .21.91h-1.32a1 1 0 0 0-.12-.46.64.64 0 0 0-.26-.28 1.16 1.16 0 0 0-.38-.15 2.19 2.19 0 0 0-.46 0 1.73 1.73 0 0 0-.32 0 .79.79 0 0 0-.3.12.77.77 0 0 0-.22.22.54.54 0 0 0-.09.33.59.59 0 0 0 .07.29.66.66 0 0 0 .28.21 4.43 4.43 0 0 0 .56.19l.93.24a4.58 4.58 0 0 1 .48.13 2 2 0 0 1 .61.29 1.91 1.91 0 0 1 .53.53 1.55 1.55 0 0 1 .22.85 1.9 1.9 0 0 1-.17.79 1.74 1.74 0 0 1-.49.63 2.41 2.41 0 0 1-.8.41 3.74 3.74 0 0 1-1.11.14 4.07 4.07 0 0 1-1-.12 2.48 2.48 0 0 1-.85-.4 1.86 1.86 0 0 1-.59-.68 2.06 2.06 0 0 1-.2-1H95a1.07 1.07 0 0 0 .09.5zm7.65-4.65l2.31 6.18h-1.41l-.47-1.38h-2.31l-.48 1.38H99l2.34-6.18zm.08 3.79l-.82-2.27-.8 2.27zm-33.94-3.79l2.58 4.14v-4.14h1.28v6.18h-1.35l-2.57-4.14v4.14h-1.3v-6.18zm9 1.65a1.43 1.43 0 0 0-.3-.35 1.81 1.81 0 0 0-.41-.23 1.51 1.51 0 0 0-.48-.08 1.55 1.55 0 0 0-.78.18 1.57 1.57 0 0 0-.52.47 2.18 2.18 0 0 0-.29.68 3.48 3.48 0 0 0-.09.79 3.22 3.22 0 0 0 .09.76 2.18 2.18 0 0 0 .29.66 1.47 1.47 0 0 0 .52.47 1.55 1.55 0 0 0 .78.18 1.26 1.26 0 0 0 1-.38 1.73 1.73 0 0 0 .43-1h1.32a3.37 3.37 0 0 1-.27 1.05 2.76 2.76 0 0 1-.57.8 2.43 2.43 0 0 1-.83.5 3 3 0 0 1-1.05.17 3.28 3.28 0 0 1-1.28-.24 2.75 2.75 0 0 1-1-.68 3.06 3.06 0 0 1-.6-1 3.7 3.7 0 0 1-.21-1.26 3.78 3.78 0 0 1 .21-1.28 3.15 3.15 0 0 1 .6-1 2.77 2.77 0 0 1 1-.69 3.11 3.11 0 0 1 1.28-.25 3 3 0 0 1 1 .15 2.55 2.55 0 0 1 .82.42 2.23 2.23 0 0 1 .59.7 2.65 2.65 0 0 1 .3 1h-1.37a1 1 0 0 0-.16-.54zm29.7-24.64A11.21 11.21 0 0 0 99.34 0a11.08 11.08 0 0 0-8.16 3.36 11.37 11.37 0 0 0-3.42 8.24 11.16 11.16 0 0 0 3.42 8.17 11.16 11.16 0 0 0 8.16 3.42 11.45 11.45 0 0 0 8.3-3.45A11 11 0 0 0 111 11.6a11.18 11.18 0 0 0-3.42-8.24zM99.23 18a5 5 0 0 1-5.12-4.54H97c.09 1.56 1.1 2.11 2.55 2.11 1.65 0 2.72-1.53 2.72-3.87s-.93-3.75-2.66-3.75A2.29 2.29 0 0 0 97 10h.85l-2.3 2.3-2.27-2.3h.92a4.94 4.94 0 0 1 5.09-4.48c3.7 0 6 2.69 6 6.27A5.9 5.9 0 0 1 99.23 18zm-14.37-6.4a12.4 12.4 0 0 1-.46 3.4l-7.87-3.56-1.86-.83-1-.44-1.49-.67a.54.54 0 0 1-.1-.3c0-.72.81-.9 1.39-.9a3.5 3.5 0 0 1 2 .68L77 7.41a5.07 5.07 0 0 0-2.91-1.06V4.56h-1.36v1.79a3.16 3.16 0 0 0-3 2.06l-6.35-2.87a12.79 12.79 0 0 1 1.71-2.18A11.06 11.06 0 0 1 73.25 0a11.21 11.21 0 0 1 8.24 3.36 11.18 11.18 0 0 1 3.37 8.24zm-10.8 5.24v1.79h-1.33v-1.79a5.55 5.55 0 0 1-3.52-1.39l1.6-1.61a3.49 3.49 0 0 0 2.58 1.05c.69 0 1.44-.27 1.44-1.15a.86.86 0 0 0-.31-.7l-1.11-.49-1.41-.62-1.83-.81-7.8-3.53a11.5 11.5 0 0 0-.7 4 11.16 11.16 0 0 0 3.42 8.17 11.14 11.14 0 0 0 8.16 3.42 11.45 11.45 0 0 0 8.3-3.45 11.33 11.33 0 0 0 2-2.63l-6.29-2.85a3.35 3.35 0 0 1-3.2 2.59z"/>
</svg>
