<svg xmlns="http://www.w3.org/2000/svg" viewBox="0 0 24.01 24.01">
  <title>icon-explorer</title>
  <g id="Layer_2" data-name="Layer 2">
    <g id="Layer_1-2" data-name="Layer 1">
      <path d="M12,18.31l11-5.8v5.82L12,24ZM8.68,5.75v1c.05,1.62-4.39,1.62-4.36,0v-1h0C4.45,4.22,8.55,4.23,8.68,5.75ZM6.51,5.33c-.75,0-1.37.26-1.37.57s.62.57,1.37.57,1.37-.26,1.37-.57S7.27,5.33,6.51,5.33ZM0,18.33,11,24V18.31L0,12.45Zm9.31-4.57h0c.11-1.53,4.21-1.53,4.34,0v1c.05,1.62-4.39,1.61-4.35,0Zm.82.15c0,.31.61.57,1.37.57s1.37-.26,1.37-.57-.62-.57-1.37-.57S10.13,13.59,10.13,13.91Zm4.19-7.2v-1h0c.11-1.53,4.2-1.52,4.33,0v1C18.73,8.33,14.29,8.33,14.32,6.71Zm3.56-.81c0-.31-.61-.57-1.37-.57s-1.37.26-1.37.57.62.57,1.37.57S17.88,6.22,17.88,5.9ZM9.31,4v-1h0c.11-1.54,4.21-1.53,4.34,0V4C13.71,5.66,9.27,5.66,9.31,4Zm.82-.81c0,.32.61.57,1.37.57s1.37-.25,1.37-.57-.62-.57-1.37-.57S10.13,2.92,10.13,3.23ZM6.5,11.59v2.66L11,11.88V6.57L6.5,8.94ZM17.25,3.07,11.5,0,5.75,3,0,6.07H0v5.23l5.5,2.93V8.91L1.17,6.61,6.33,3.88,11.5,1.15l5.18,2.76,5.18,2.76L17.5,9v5.3l5.5-2.9V6.14ZM12,11.88l4.5,2.39V8.94L12,6.55Z"/>
    </g>
  </g>
</svg>